<svg version="1.1" id="si-cart-fifteen" xmlns="http://www.w3.org/2000/svg" xmlns:xlink="http://www.w3.org/1999/xlink" x="0px" y="0px" viewBox="0 0 100 100" style="enable-background:new 0 0 100 100;" xml:space="preserve"><path class="st62" d="M60.27,51.019c-3.081-1.522-6.567-2.397-10.27-2.397c-3.704,0-7.189,0.875-10.27,2.397 C32.473,54.604,27.5,61.85,27.5,70.224v14.467c0,2.984,2.52,5.403,5.628,5.403h33.745c3.108,0,5.628-2.419,5.628-5.403V70.224 C72.5,61.85,67.527,54.604,60.27,51.019z" fill="#dbdbdb" style="fill: rgb(219, 219, 219);"></path>
    <polyline class="st78" points="45.667,50.622 54.5,58.737 48,64.517 48,90.095 " stroke="rgb(179, 179, 179)" style="stroke: rgb(179, 179, 179);"></polyline>
    <circle class="st79" cx="55.137" cy="69.221" r="1.863" fill="rgb(179, 179, 179)" style="fill: rgb(179, 179, 179);"></circle>
    <circle class="st79" cx="55.137" cy="76.221" r="1.863" fill="rgb(179, 179, 179)" style="fill: rgb(179, 179, 179);"></circle>
    <circle class="st79" cx="55.137" cy="83.221" r="1.863" fill="rgb(179, 179, 179)" style="fill: rgb(179, 179, 179);"></circle>
    <circle class="st45" cx="58" cy="16.549" r="4.875" fill="rgb(224, 224, 224)" style="fill: rgb(224, 224, 224);"></circle>
    <circle class="st45" cx="42" cy="16.549" r="4.875" fill="rgb(224, 224, 224)" style="fill: rgb(224, 224, 224);"></circle>
    <circle class="st45" cx="50" cy="15.665" r="5.759" fill="rgb(224, 224, 224)" style="fill: rgb(224, 224, 224);"></circle>
    <circle class="st29" cx="50" cy="39.108" r="14.513" fill="rgb(197, 194, 186)" style="fill: rgb(197, 194, 186);"></circle>
    <path class="st45" d="M59,28.059c-6,4.82-12,4.82-18,0V18.01h18V28.059z" fill="rgb(224, 224, 224)" style="fill: rgb(224, 224, 224);"></path>
    <path class="st82" d="M59.029,19.424c-1.455,0-2.771-0.572-3.755-1.494c-0.262,0.611-0.629,1.159-1.074,1.639 c0.893,1.122,2.254,1.856,3.8,1.856c2.145,0,3.946-1.395,4.598-3.319C61.637,18.925,60.392,19.424,59.029,19.424z" fill="#dbdbdb" style="fill: rgb(219, 219, 219);"></path>
    <path class="st82" d="M40.971,19.424c-1.363,0-2.608-0.498-3.569-1.319c0.652,1.925,2.453,3.319,4.598,3.319 c1.546,0,2.907-0.733,3.8-1.856c-0.445-0.48-0.813-1.028-1.074-1.639C43.742,18.852,42.426,19.424,40.971,19.424z" fill="#dbdbdb" style="fill: rgb(219, 219, 219);"></path>
    <path class="st82" d="M54.745,17.361c-0.371,0.397-0.794,0.742-1.253,1.036c-1.009,0.646-2.205,1.027-3.493,1.027 s-2.484-0.38-3.493-1.027c-0.459-0.294-0.882-0.639-1.253-1.036c-0.162,0.202-0.34,0.391-0.529,0.568 c0.262,0.611,0.629,1.159,1.074,1.639c1.05,1.132,2.533,1.856,4.2,1.856s3.15-0.723,4.2-1.856c0.445-0.48,0.813-1.028,1.074-1.639 C55.085,17.752,54.908,17.563,54.745,17.361z" fill="#dbdbdb" style="fill: rgb(219, 219, 219);"></path>
</svg>