<svg version="1.1" id="bi-bank" xmlns="http://www.w3.org/2000/svg" xmlns:xlink="http://www.w3.org/1999/xlink" x="0px" y="0px" viewBox="0 0 100 100" enable-background="new 0 0 100 100" xml:space="preserve">
	<polygon fill="#333" points="50,42.9 26,42.9 50,24.9 74,42.9 "/>
	<polyline fill="#333" points="30,42.9 30,63.1 38.1,63.1 38.1,42.9 "/>
	<polyline fill="#333" points="46,42.9 46,63.1 54,63.1 54,42.9 "/>
	<polyline fill="#333" points="61.9,42.9 61.9,63.1 70,63.1 70,42.9 "/>
	<polygon fill="#333" points="50,75.4 23,75.4 23,63.1 77,63.1 77,75.4 "/>
	<path fill="#333" d="M51.6,32.6c0,0-1.8-0.8-2.4,0.3c-0.6,1.1,0.6,1.8,1.1,2c0.4,0.2,1.2,0.4,1.2,1.3c0.1,0.8-1.1,2.1-3,0.8"/>
	<line fill="#333" x1="50.2" y1="31.1" x2="50.2" y2="32.2"/>
	<line fill="#333" x1="50.2" y1="37.8" x2="50.2" y2="38.9"/>
</svg>